<mxfile host="app.diagrams.net" modified="2021-03-05T13:10:38.746Z" agent="5.0 (X11; Linux x86_64) AppleWebKit/537.36 (KHTML, like Gecko) Chrome/88.0.4324.150 Safari/537.36" etag="0M5yhYgTSCKvyfsq5GIR" version="14.4.4" type="github">
  <diagram id="s0wM75NJx5sVvs3lPAKs" name="Page-1">
    <mxGraphModel dx="1350" dy="774" grid="1" gridSize="11" guides="1" tooltips="1" connect="1" arrows="1" fold="1" page="1" pageScale="1" pageWidth="827" pageHeight="1169" math="0" shadow="0">
      <root>
        <mxCell id="0" />
        <mxCell id="1" parent="0" />
        <mxCell id="XGzRJs7LDD1laUel_MjV-1" value="" style="rounded=0;whiteSpace=wrap;html=1;" vertex="1" parent="1">
          <mxGeometry x="40" y="120" width="160" height="80" as="geometry" />
        </mxCell>
        <mxCell id="XGzRJs7LDD1laUel_MjV-2" value="" style="rounded=0;whiteSpace=wrap;html=1;" vertex="1" parent="1">
          <mxGeometry x="360" y="120" width="160" height="80" as="geometry" />
        </mxCell>
        <mxCell id="XGzRJs7LDD1laUel_MjV-3" value="" style="rounded=0;whiteSpace=wrap;html=1;" vertex="1" parent="1">
          <mxGeometry x="640" y="120" width="160" height="80" as="geometry" />
        </mxCell>
        <mxCell id="XGzRJs7LDD1laUel_MjV-4" value="" style="endArrow=none;html=1;entryX=0.5;entryY=1;entryDx=0;entryDy=0;" edge="1" parent="1" target="XGzRJs7LDD1laUel_MjV-2">
          <mxGeometry width="50" height="50" relative="1" as="geometry">
            <mxPoint x="440" y="760" as="sourcePoint" />
            <mxPoint x="440" y="370" as="targetPoint" />
            <Array as="points" />
          </mxGeometry>
        </mxCell>
        <mxCell id="XGzRJs7LDD1laUel_MjV-5" value="" style="endArrow=none;html=1;entryX=0.5;entryY=1;entryDx=0;entryDy=0;" edge="1" parent="1" target="XGzRJs7LDD1laUel_MjV-1">
          <mxGeometry width="50" height="50" relative="1" as="geometry">
            <mxPoint x="120" y="760" as="sourcePoint" />
            <mxPoint x="450" y="210" as="targetPoint" />
            <Array as="points" />
          </mxGeometry>
        </mxCell>
        <mxCell id="XGzRJs7LDD1laUel_MjV-6" value="" style="endArrow=none;html=1;entryX=0.5;entryY=1;entryDx=0;entryDy=0;" edge="1" parent="1" target="XGzRJs7LDD1laUel_MjV-3">
          <mxGeometry width="50" height="50" relative="1" as="geometry">
            <mxPoint x="720" y="760" as="sourcePoint" />
            <mxPoint x="450" y="210" as="targetPoint" />
            <Array as="points" />
          </mxGeometry>
        </mxCell>
        <mxCell id="XGzRJs7LDD1laUel_MjV-7" value="Magento" style="text;html=1;strokeColor=none;fillColor=none;align=center;verticalAlign=middle;whiteSpace=wrap;rounded=0;" vertex="1" parent="1">
          <mxGeometry x="100" y="150" width="40" height="20" as="geometry" />
        </mxCell>
        <mxCell id="XGzRJs7LDD1laUel_MjV-9" value="Stripe" style="text;html=1;strokeColor=none;fillColor=none;align=center;verticalAlign=middle;whiteSpace=wrap;rounded=0;" vertex="1" parent="1">
          <mxGeometry x="420" y="150" width="40" height="20" as="geometry" />
        </mxCell>
        <mxCell id="XGzRJs7LDD1laUel_MjV-10" value="Mirakl" style="text;html=1;strokeColor=none;fillColor=none;align=center;verticalAlign=middle;whiteSpace=wrap;rounded=0;" vertex="1" parent="1">
          <mxGeometry x="700" y="150" width="40" height="20" as="geometry" />
        </mxCell>
        <mxCell id="XGzRJs7LDD1laUel_MjV-16" value="" style="endArrow=classic;html=1;" edge="1" parent="1">
          <mxGeometry relative="1" as="geometry">
            <mxPoint x="440" y="400" as="sourcePoint" />
            <mxPoint x="120" y="400" as="targetPoint" />
          </mxGeometry>
        </mxCell>
        <mxCell id="XGzRJs7LDD1laUel_MjV-17" value="&lt;b&gt;&lt;font style=&quot;font-size: 12px&quot;&gt;Response&lt;/font&gt;&lt;/b&gt; :&lt;font style=&quot;font-size: 12px&quot;&gt; Stripe Connect Account ID&lt;/font&gt;" style="edgeLabel;resizable=0;html=1;align=center;verticalAlign=middle;fontSize=11;" connectable="0" vertex="1" parent="XGzRJs7LDD1laUel_MjV-16">
          <mxGeometry relative="1" as="geometry" />
        </mxCell>
        <mxCell id="XGzRJs7LDD1laUel_MjV-22" value="Label" style="endArrow=classic;html=1;" edge="1" parent="1">
          <mxGeometry relative="1" as="geometry">
            <mxPoint x="120" y="360" as="sourcePoint" />
            <mxPoint x="440" y="360" as="targetPoint" />
          </mxGeometry>
        </mxCell>
        <mxCell id="XGzRJs7LDD1laUel_MjV-23" value="&lt;span style=&quot;color: rgb(0 , 0 , 0) ; font-family: &amp;#34;helvetica&amp;#34; ; font-size: 12px ; font-style: normal ; letter-spacing: normal ; text-align: center ; text-indent: 0px ; text-transform: none ; word-spacing: 0px ; background-color: rgb(248 , 249 , 250) ; display: inline ; float: none&quot;&gt;&lt;b&gt;Request&lt;/b&gt;&lt;/span&gt;&lt;span style=&quot;color: rgb(0 , 0 , 0) ; font-family: &amp;#34;helvetica&amp;#34; ; font-size: 12px ; font-style: normal ; font-weight: 400 ; letter-spacing: normal ; text-align: center ; text-indent: 0px ; text-transform: none ; word-spacing: 0px ; background-color: rgb(248 , 249 , 250) ; display: inline ; float: none&quot;&gt; : Stripe Connect Account Form&lt;/span&gt;" style="edgeLabel;resizable=0;html=1;align=center;verticalAlign=middle;" connectable="0" vertex="1" parent="XGzRJs7LDD1laUel_MjV-22">
          <mxGeometry relative="1" as="geometry" />
        </mxCell>
        <mxCell id="XGzRJs7LDD1laUel_MjV-27" value="Label" style="endArrow=classic;html=1;" edge="1" parent="1">
          <mxGeometry relative="1" as="geometry">
            <mxPoint x="120" y="480" as="sourcePoint" />
            <mxPoint x="440" y="480" as="targetPoint" />
          </mxGeometry>
        </mxCell>
        <mxCell id="XGzRJs7LDD1laUel_MjV-28" value="&lt;b&gt;Request : &lt;/b&gt;&lt;font style=&quot;font-size: 12px&quot;&gt;Stripe Connect Account&amp;nbsp; ID&lt;/font&gt;" style="edgeLabel;resizable=0;html=1;align=center;verticalAlign=middle;" connectable="0" vertex="1" parent="XGzRJs7LDD1laUel_MjV-27">
          <mxGeometry relative="1" as="geometry" />
        </mxCell>
        <mxCell id="XGzRJs7LDD1laUel_MjV-33" value="Label" style="endArrow=classic;html=1;" edge="1" parent="1">
          <mxGeometry relative="1" as="geometry">
            <mxPoint x="440" y="520" as="sourcePoint" />
            <mxPoint x="120" y="520" as="targetPoint" />
            <Array as="points" />
          </mxGeometry>
        </mxCell>
        <mxCell id="XGzRJs7LDD1laUel_MjV-34" value="&lt;b&gt;Response : &lt;/b&gt;&lt;font style=&quot;font-size: 12px&quot;&gt;Stripe Connected Account&amp;nbsp; Link&lt;/font&gt;" style="edgeLabel;resizable=0;html=1;align=center;verticalAlign=middle;" connectable="0" vertex="1" parent="XGzRJs7LDD1laUel_MjV-33">
          <mxGeometry relative="1" as="geometry">
            <mxPoint x="6" as="offset" />
          </mxGeometry>
        </mxCell>
        <mxCell id="XGzRJs7LDD1laUel_MjV-45" value="" style="endArrow=classic;html=1;fontSize=11;" edge="1" parent="1">
          <mxGeometry relative="1" as="geometry">
            <mxPoint x="121" y="616" as="sourcePoint" />
            <mxPoint x="715" y="616" as="targetPoint" />
          </mxGeometry>
        </mxCell>
        <mxCell id="XGzRJs7LDD1laUel_MjV-46" value="&amp;nbsp; &amp;nbsp; &amp;nbsp;- Stripe Connect Account ID&lt;br&gt;- Stripe&amp;nbsp;Onboarding URL&lt;br&gt;-Other Information" style="edgeLabel;resizable=0;html=1;align=center;verticalAlign=middle;" connectable="0" vertex="1" parent="XGzRJs7LDD1laUel_MjV-45">
          <mxGeometry relative="1" as="geometry">
            <mxPoint x="-88" as="offset" />
          </mxGeometry>
        </mxCell>
        <mxCell id="XGzRJs7LDD1laUel_MjV-48" value="" style="endArrow=classic;html=1;fontSize=11;" edge="1" parent="1">
          <mxGeometry relative="1" as="geometry">
            <mxPoint x="715" y="660" as="sourcePoint" />
            <mxPoint x="121" y="660" as="targetPoint" />
          </mxGeometry>
        </mxCell>
        <mxCell id="XGzRJs7LDD1laUel_MjV-49" value="Response" style="edgeLabel;resizable=0;html=1;align=center;verticalAlign=middle;" connectable="0" vertex="1" parent="XGzRJs7LDD1laUel_MjV-48">
          <mxGeometry relative="1" as="geometry">
            <mxPoint x="-110" as="offset" />
          </mxGeometry>
        </mxCell>
      </root>
    </mxGraphModel>
  </diagram>
</mxfile>
